<mxfile host="65bd71144e">
    <diagram id="mCAqaDZ3O_-YnR1DIkYz" name="Page-1">
        <mxGraphModel dx="934" dy="371" grid="1" gridSize="10" guides="1" tooltips="1" connect="1" arrows="1" fold="1" page="1" pageScale="1" pageWidth="827" pageHeight="1169" math="0" shadow="0">
            <root>
                <mxCell id="0"/>
                <mxCell id="1" parent="0"/>
                <mxCell id="2" value="" style="shape=image;verticalLabelPosition=bottom;labelBackgroundColor=#ffffff;verticalAlign=top;aspect=fixed;imageAspect=0;image=https://blog.cleancoder.com/uncle-bob/images/2012-08-13-the-clean-architecture/CleanArchitecture.jpg;imageBackground=none;" vertex="1" parent="1">
                    <mxGeometry x="40" y="40" width="520" height="382" as="geometry"/>
                </mxCell>
            </root>
        </mxGraphModel>
    </diagram>
</mxfile>